<?xml version="1.0" standalone="no"?>
<!DOCTYPE svg PUBLIC "-//W3C//DTD SVG 20010904//EN"
 "http://www.w3.org/TR/2001/REC-SVG-20010904/DTD/svg10.dtd">
<svg version="1.0" xmlns="http://www.w3.org/2000/svg"
 width="1250.000000pt" height="1250.000000pt" viewBox="0 0 1250.000000 1250.000000"
 preserveAspectRatio="xMidYMid meet">
<metadata>
Created by potrace 1.11, written by Peter Selinger 2001-2013
</metadata>
<g transform="translate(0.000000,1250.000000) scale(0.100000,-0.100000)"
fill="#000000" stroke="none">
<path d="M0 6250 l0 -6250 6250 0 6250 0 0 6250 0 6250 -6250 0 -6250 0 0
-6250z m1639 4788 c4 -13 113 -577 242 -1255 128 -677 235 -1230 236 -1229 2
1 131 553 287 1227 156 673 287 1236 291 1252 l7 27 311 -2 312 -3 277 -1200
c152 -660 282 -1224 288 -1253 7 -30 13 -52 15 -50 2 2 110 563 239 1247 130
683 238 1247 241 1252 4 5 157 9 366 9 341 0 359 -1 359 -18 0 -10 -176 -810
-390 -1776 -215 -967 -390 -1760 -390 -1762 0 -2 -168 -4 -372 -4 l-373 0
-285 1175 c-157 646 -287 1175 -290 1175 -3 0 -133 -529 -290 -1175 l-285
-1175 -372 0 c-205 0 -373 2 -373 4 0 2 -175 795 -390 1761 -214 966 -390
1766 -390 1776 0 18 13 19 360 19 l360 0 9 -22z m6899 -280 l2 -298 -545 0
-545 0 0 -1480 0 -1480 -370 0 -370 0 0 1480 0 1480 -535 0 -535 0 0 300 0
300 1448 -2 1447 -3 3 -297z m3042 2 l0 -300 -790 0 -790 0 0 -455 0 -455 703
-2 702 -3 3 -297 2 -298 -705 0 -705 0 0 -725 0 -725 -370 0 -370 0 0 1773 c0
976 3 1777 7 1780 3 4 525 7 1160 7 l1153 0 0 -300z m-6051 -5720 c738 -66
1230 -569 1358 -1390 26 -165 26 -702 0 -874 -89 -590 -378 -1027 -822 -1241
-106 -50 -245 -96 -370 -122 -140 -28 -473 -25 -615 6 -443 95 -781 351 -985
743 -103 200 -172 430 -200 673 -20 173 -20 586 0 757 37 317 136 600 293 837
69 104 221 264 325 342 199 147 461 244 727 268 136 12 162 12 289 1z m-3271
-1822 l2 -1778 -370 0 -370 0 0 1773 c0 976 3 1777 7 1780 4 4 169 6 367 5
l361 -3 3 -1777z m6952 976 l0 -807 152 209 c179 248 1065 1394 1082 1400 6 2
210 3 454 2 l443 -3 -626 -784 c-344 -432 -628 -788 -630 -791 -4 -7 16 -37
743 -1143 l551 -837 -441 2 -441 3 -451 704 c-248 387 -455 703 -461 701 -5
-2 -92 -92 -192 -200 l-182 -195 -1 -507 0 -508 -370 0 -370 0 0 1773 c0 976
3 1777 7 1780 3 4 170 7 370 7 l363 0 0 -806z"/>
<path d="M5297 4430 c-370 -45 -597 -336 -656 -840 -28 -242 -21 -631 15 -840
45 -263 162 -496 306 -611 121 -96 264 -142 438 -141 196 0 334 51 458 167
140 130 225 309 273 567 26 144 38 641 19 822 -22 217 -77 408 -157 546 -57
98 -181 218 -273 262 -122 60 -279 85 -423 68z"/>
</g>
</svg>
